<?xml version="1.0" encoding="utf-8"?>
<!-- Generator: Adobe Illustrator 24.1.0, SVG Export Plug-In . SVG Version: 6.00 Build 0)  -->
<svg version="1.1" id="Layer_1" xmlns="http://www.w3.org/2000/svg" xmlns:xlink="http://www.w3.org/1999/xlink" x="0px" y="0px"
	 viewBox="0 0 134.35 40.05" enable-background="new 0 0 134.35 40.05" xml:space="preserve">
<g>
	<g>
		<g>
			<g>
				<path fill="#FFFFFF" d="M71.14,39.23c-0.31,0-0.59-0.15-0.76-0.41c-0.17-0.26-0.21-0.57-0.09-0.86l3.27-7.98
					c0.05-0.12,0.07-0.24,0.07-0.37c0-0.12-0.02-0.24-0.07-0.36l-7.12-18.23c-0.11-0.29-0.08-0.6,0.1-0.85
					c0.17-0.25,0.45-0.4,0.76-0.4h4.78c0.39,0,0.74,0.25,0.87,0.62l3.94,11.46l3.77-11.45c0.12-0.38,0.47-0.63,0.87-0.63h4.76
					c0.31,0,0.58,0.14,0.76,0.4c0.17,0.25,0.21,0.56,0.1,0.85L76.78,38.64c-0.13,0.36-0.48,0.6-0.86,0.6h0L71.14,39.23z"/>
			</g>
			<g>
				<path fill="#FFFFFF" d="M11.17,31.22c-3.04,0-5.88-1.21-8-3.41c-2.11-2.2-3.21-5.08-3.1-8.13C0.3,14.01,4.91,9.33,10.58,9.03
					c0.2-0.01,0.4-0.02,0.59-0.02c1.73,0,3.39,0.39,4.93,1.16l0.17,0.08V1.89c0-0.51,0.41-0.92,0.92-0.92h4.17
					c0.51,0,0.92,0.41,0.92,0.92v18.54l-0.01,0.08C22.05,26.51,17.18,31.22,11.17,31.22z M11.17,14.63c-3.02,0-5.48,2.46-5.48,5.48
					s2.46,5.48,5.48,5.48c3.02,0,5.48-2.46,5.48-5.48S14.19,14.63,11.17,14.63z"/>
			</g>
			<g>
				<path fill="#FFFFFF" d="M114.42,30.43c-0.51,0-0.92-0.41-0.92-0.92V19.03c0-5.1,4.15-9.25,9.25-9.25h1.19
					c0.51,0,0.92,0.41,0.92,0.92v4.13c0,0.51-0.41,0.92-0.92,0.92h-0.97c-1.91,0-3.47,1.55-3.47,3.47v10.31
					c0,0.51-0.41,0.92-0.92,0.92H114.42z"/>
			</g>
			<g>
				<path fill="#FFFFFF" d="M128.71,30.43c-0.51,0-0.92-0.41-0.92-0.92V10.69c0-0.51,0.41-0.92,0.92-0.92h4.17
					c0.51,0,0.92,0.41,0.92,0.92v18.82c0,0.51-0.41,0.92-0.92,0.92H128.71z"/>
			</g>
			<g>
				<path fill="#FFFFFF" d="M130.8,6.74c-1.82,0-3.31-1.48-3.31-3.31s1.48-3.31,3.31-3.31c1.82,0,3.31,1.48,3.31,3.31
					S132.62,6.74,130.8,6.74z"/>
			</g>
			<g>
				<path fill="#FFFFFF" d="M56.85,31.22c-1.99,0-3.8-0.49-5.22-1.41c-1.5-0.97-2.54-2.43-3.03-4.22c-0.03-0.12-0.06-0.25-0.08-0.38
					c-0.03-0.26,0.05-0.52,0.22-0.72c0.17-0.2,0.43-0.31,0.69-0.31h4.54c0.38,0,0.72,0.23,0.85,0.57c0.02,0.04,0.03,0.08,0.05,0.12
					c0.17,0.39,0.43,0.69,0.79,0.89c0.35,0.2,0.77,0.3,1.26,0.3c0.35,0,0.72-0.08,1.04-0.21c0.36-0.15,0.64-0.37,0.8-0.63
					c0.12-0.19,0.19-0.4,0.19-0.64c0-0.33-0.09-0.61-0.26-0.87c-0.15-0.22-0.37-0.42-0.66-0.61c-0.41-0.26-0.92-0.45-1.4-0.64
					c-0.13-0.05-0.26-0.1-0.38-0.15c-0.88-0.29-1.78-0.59-2.67-0.93c-1.04-0.38-1.93-0.83-2.65-1.34c-0.87-0.62-1.51-1.35-1.89-2.16
					c-0.29-0.61-0.43-1.28-0.43-1.98c0-2.02,0.9-3.83,2.54-5.09c1.48-1.14,3.5-1.8,5.54-1.8c1.91,0,3.62,0.45,4.96,1.31
					c1.44,0.92,2.42,2.31,2.83,4c0.03,0.1,0.05,0.2,0.07,0.29c0.06,0.27-0.01,0.55-0.18,0.77c-0.18,0.22-0.44,0.34-0.72,0.34h-4.44
					c-0.4,0-0.75-0.25-0.87-0.62c-0.01-0.02-0.02-0.05-0.03-0.07c-0.12-0.31-0.32-0.52-0.62-0.66c-0.28-0.14-0.64-0.2-1.08-0.2
					c-0.3,0-0.61,0.06-0.86,0.18c-0.28,0.13-0.49,0.31-0.62,0.53C55.05,15.05,55,15.23,55,15.43c0,0.24,0.06,0.44,0.18,0.64
					c0.11,0.18,0.29,0.35,0.51,0.51c0.39,0.27,0.95,0.51,1.83,0.79c0.33,0.1,0.67,0.2,1.03,0.31c1.26,0.37,2.68,0.78,3.89,1.48
					c1.18,0.68,1.97,1.52,2.43,2.57c0.3,0.69,0.45,1.49,0.45,2.37c0,1.13-0.25,2.17-0.73,3.1c-0.45,0.86-1.1,1.61-1.93,2.23
					C61.13,30.58,59.06,31.22,56.85,31.22L56.85,31.22z"/>
			</g>
			<g>
				<circle fill="#FFFFFF" cx="56.92" cy="36.68" r="3.31"/>
			</g>
			<g>
				<path fill="#FFFFFF" d="M30.07,15.64c-1.82,0-3.31-1.48-3.31-3.31s1.48-3.31,3.31-3.31c1.82,0,3.31,1.48,3.31,3.31
					S31.9,15.64,30.07,15.64z"/>
			</g>
			<g>
				<circle fill="#FFFFFF" cx="40.97" cy="12.33" r="3.31"/>
			</g>
			<g>
				<path fill="#FFFFFF" d="M35.52,31.22c-5.22,0-9.78-3.7-10.86-8.8c-0.1-0.49,0.21-0.98,0.7-1.09l3.85-0.85
					c0.06-0.01,0.13-0.02,0.2-0.02c0.44,0,0.81,0.32,0.9,0.76c0.5,2.53,2.69,4.36,5.2,4.36c2.51,0,4.7-1.84,5.2-4.36
					c0.09-0.44,0.47-0.76,0.9-0.76c0.07,0,0.13,0.01,0.2,0.02l3.85,0.85c0.49,0.11,0.81,0.6,0.7,1.09
					C45.31,27.52,40.74,31.22,35.52,31.22z"/>
			</g>
			<g>
				<path fill="#FFFFFF" d="M99.27,31.22c-3.04,0-5.88-1.21-8-3.4c-2.11-2.19-3.21-5.08-3.09-8.13c0.22-5.76,4.9-10.44,10.66-10.66
					c0.14-0.01,0.29-0.01,0.43-0.01c6.12,0,11.1,4.98,11.1,11.1c0,0.32-0.01,0.65-0.04,0.98c-0.04,0.48-0.44,0.84-0.92,0.84H96.25
					c-0.46,0-0.87,0.26-1.05,0.69c-0.19,0.42-0.11,0.89,0.2,1.22c1,1.1,2.42,1.73,3.88,1.73c1.16,0,2.26-0.38,3.18-1.09
					c0.16-0.12,0.35-0.19,0.55-0.19h5.07c0.33,0,0.63,0.17,0.79,0.46c0.17,0.29,0.17,0.64,0,0.93
					C106.88,29.1,103.21,31.22,99.27,31.22z M102.33,17.8c0.63,0,1.14-0.52,1.14-1.16c0-0.39-0.19-0.75-0.51-0.97
					c-1.08-0.72-2.35-1.1-3.69-1.1s-2.61,0.38-3.69,1.1c-0.32,0.22-0.51,0.58-0.51,0.97c0,0.64,0.51,1.16,1.14,1.16l6.1,0
					L102.33,17.8z M102.32,17.8L102.32,17.8L102.32,17.8z"/>
			</g>
		</g>
	</g>
</g>
</svg>
